<svg width="512" height="512" xmlns="http://www.w3.org/2000/svg">

 <g>
  <title>background</title>
  <rect fill="none" id="canvas_background" height="402" width="582" y="-1" x="-1"/>
 </g>
 <g>
  <title>Layer 1</title>
  <path fill="#ffffff" id="svg_2" d="m437.017,74.986c-46.358,-46.357 -110.284,-74.986 -181.018,-74.986c-70.737,0 -134.664,28.629 -181.016,74.986c-46.347,46.355 -74.983,110.282 -74.983,181.014s28.636,134.659 74.983,181.017c46.352,46.352 110.279,74.983 181.016,74.983c70.734,0 134.66,-28.631 181.018,-74.983c46.346,-46.358 74.983,-110.285 74.983,-181.017s-28.637,-134.659 -74.983,-181.014z"/>
  <path id="svg_3" fill-rule="evenodd" fill="#3d3d3d" d="m282.082,238.14c-18.852,0.283 -37.705,0.283 -56.558,0.283c-5.382,0 -10.91,-0.283 -16.165,0c-1.126,0 -2.828,1.275 -2.828,1.984c-0.141,10.917 -0.141,21.833 -0.141,33.173c15.448,0 30.615,0 46.063,0c-0.419,2.262 -0.843,3.963 -1.555,5.522c-6.952,20.982 -28.641,31.333 -52.026,27.506c-28.919,-4.821 -46.771,-31.474 -41.53,-60.388c0.57,-4.112 1.983,-8.081 3.402,-11.769c9.633,-20.978 33.307,-33.735 56.702,-28.49c8.36,1.843 15.595,5.672 21.679,11.198c8.507,-8.504 16.59,-16.585 25.377,-25.372c-0.565,-0.427 -1.555,-1.136 -2.12,-1.843c-20.414,-17.153 -43.81,-23.535 -70.033,-19.14c-37.85,6.096 -65.057,35.866 -70.868,70.591c-2.691,14.745 -1.56,30.477 4.256,45.784c14.46,36.72 51.446,59.252 91.139,54.859c19.418,-2.125 36.72,-9.067 50.04,-23.386c19.973,-21.265 25.224,-46.781 21.972,-74.986c-0.575,-4.675 -2.413,-5.526 -6.806,-5.526l0,0z" clip-rule="evenodd"/>
  <polygon id="svg_4" points="392.298,240.478 362.175,240.478 362.175,210.354    340.062,210.354 340.062,240.478 309.938,240.478 309.938,262.591 340.062,262.591 340.062,292.714 362.175,292.714    362.175,262.591 392.298,262.591  " fill-rule="evenodd" fill="#383838" clip-rule="evenodd"/>
 </g>
</svg>