<svg width="32" height="32" xmlns="http://www.w3.org/2000/svg">

 <g>
  <title>background</title>
  <rect fill="none" id="canvas_background" height="402" width="582" y="-1" x="-1"/>
 </g>
 <g>
  <title>Layer 1</title>
  <circle fill="#ffffff" r="16" id="BG" cy="16" cx="16"/>
  <path fill="#474747" id="Bird" d="m22.1,12.1c0.7,-0.4 1.2,-1.1 1.4,-1.8c-0.6,0.4 -1.3,0.6 -2.1,0.8c-0.6,-0.6 -1.5,-1 -2.4,-1c-1.8,0 -3.3,1.5 -3.3,3.3c0,0.3 0,0.5 0.1,0.7c-2.7,-0.1 -5.2,-1.4 -6.8,-3.4c-0.3,0.5 -0.4,1.1 -0.4,1.7c0,1.1 0.6,2.1 1.5,2.7c-0.5,0 -1,-0.2 -1.5,-0.4l0,0c0,1.6 1.1,2.9 2.6,3.2c-0.2,0 -0.5,0.1 -0.8,0.1c-0.2,0 -0.4,0 -0.6,-0.1c0.4,1.3 1.6,2.3 3.1,2.3c-1.1,0.9 -2.5,1.4 -4.1,1.4c-0.3,0 -0.5,0 -0.8,0c1.4,0.9 3,1.4 4.7,1.5l0.8,0c5.7,-0.3 8.9,-5.1 8.9,-9.3c0,-0.1 0,-0.3 0,-0.4c0.6,-0.5 1.2,-1 1.6,-1.7l0,0c-0.6,0.1 -1.2,0.3 -1.9,0.4z"/>
 </g>
</svg>